<svg width="60" height="60" fill="none" xmlns="http://www.w3.org/2000/svg"><path d="M12.832 10.155l-2.455-2.832a30.432 30.432 0 00-2.838 2.812l2.812 2.482a26.77 26.77 0 012.481-2.462zM8.21 15.384l-3.114-2.09a30.191 30.191 0 00-2 3.46L6.46 18.41a26.366 26.366 0 011.751-3.026z" fill="#D31218"/><path d="M39.543 1.559A29.986 29.986 0 0030.014 0a29.86 29.86 0 00-16.452 4.912l2.062 3.133a26.112 26.112 0 0114.39-4.295c14.48.013 26.208 11.764 26.194 26.246-.014 14.482-11.763 26.211-26.243 26.198-14.48-.014-26.207-11.765-26.194-26.247a26.23 26.23 0 011.357-8.303l-3.561-1.192c-5.27 15.705 3.187 32.71 18.89 37.98 15.703 5.272 32.706-3.186 37.976-18.892 5.27-15.705-3.187-32.71-18.89-37.981z" fill="#D31218"/><path d="M30.014 14.998a15.01 15.01 0 0111.153 5l2.791-2.501C37.056 9.78 25.206 9.12 17.49 16.023c-7.716 6.903-8.376 18.755-1.474 26.472 6.902 7.717 18.753 8.377 26.469 1.474.518-.464 1.01-.956 1.473-1.474l-2.79-2.501c-5.522 6.174-15.002 6.703-21.175 1.181-6.174-5.521-6.702-15.003-1.181-21.177a14.995 14.995 0 0111.202-5z" fill="#D31218"/></svg>