<svg width="28" height="26" fill="none" xmlns="http://www.w3.org/2000/svg"><path d="M26.416 3h-9.42v2.984h3.116v2.031h-3.117V10h3.085v2h-3.085v2h3.085v2h-3.085v2h3.085v2h-3.085v3h9.42a.868.868 0 00.862-.87V3.87a.868.868 0 00-.861-.87zM25.22 20h-4.113v-2h4.113v2zm0-4h-4.113v-2h4.113v2zm0-4h-4.113v-2h4.113v2zm0-4h-4.113V6h4.113v2zM.545 2.889v20.223L15.967 26V0L.545 2.889zM10.3 18.08l-1.794-3.299c-.068-.123-.138-.349-.211-.678h-.028a5.035 5.035 0 01-.24.707l-1.8 3.27H3.43l3.319-5.064-3.037-5.065h2.855l1.488 3.037c.117.24.22.525.313.854h.029c.058-.198.167-.492.327-.883L10.38 7.95h2.614L9.87 12.972l3.21 5.107-2.781.001z" fill="#fff"/></svg>