<svg width="16" height="8" fill="none" xmlns="http://www.w3.org/2000/svg"><path d="M3.228 6.633c-.042-.218-.209-.378-.418-.378h-.723c-.237 0-.417-.19-.417-.436V2.182c0-.247.18-.436.417-.436h7.235c.236 0 .417.189.417.436V4.51c0 .247.181.436.417.436h.835a.42.42 0 00.418-.436V1.702C11.409.757 10.685 0 9.78 0H1.656C.737 0 0 .771 0 1.731v4.48c0 .99.765 1.79 1.711 1.79h1.74c.25 0 .375-.306.194-.495a1.796 1.796 0 01-.417-.873z" fill="#979BA3"/><path d="M14.289 0h-1.74c-.25 0-.375.306-.194.495.195.204.348.495.417.873.042.218.209.378.418.378h.723c.237 0 .417.189.417.436V5.82c0 .247-.18.436-.417.436H6.678c-.236 0-.417-.19-.417-.436V3.49a.42.42 0 00-.418-.436H5.01a.42.42 0 00-.418.436V6.3C4.591 7.244 5.315 8 6.22 8h8.125C15.263 8 16 7.23 16 6.27V1.79C16 .8 15.235 0 14.289 0z" fill="#979BA3"/></svg>