<svg width="65" height="64" fill="none" xmlns="http://www.w3.org/2000/svg"><path d="M16.365 26.439a1.918 1.918 0 00.475 1.953l6.402 6.332-1.472 8.902a1.916 1.916 0 00.759 1.86 1.898 1.898 0 001.997.151l7.974-4.158 7.974 4.158a1.896 1.896 0 001.997-.15 1.916 1.916 0 00.76-1.86l-1.474-8.903 6.403-6.332a1.918 1.918 0 00.475-1.953 1.907 1.907 0 00-1.527-1.3l-8.886-1.344-4.019-8.072a1.904 1.904 0 00-1.703-1.057c-.721 0-1.38.409-1.703 1.057l-4.02 8.072-8.885 1.344a1.907 1.907 0 00-1.527 1.3zm11.957.99a1.905 1.905 0 001.42-1.035l2.758-5.54 2.758 5.54c.277.556.807.943 1.42 1.036l6.096.921-4.393 4.345a1.917 1.917 0 00-.543 1.676l1.01 6.108-5.47-2.852a1.896 1.896 0 00-1.756 0l-5.471 2.852 1.01-6.108c.102-.614-.1-1.24-.542-1.676l-4.393-4.345 6.096-.921z" fill="#D31218"/><path d="M63.581 36.829c-.178-.047-3.4-.877-6.794-.21.3-1.465.464-2.938.497-4.406 1.908-.844 5.172-2.675 6.712-5.823 2.204-4.508.087-9.885-.004-10.112a1.902 1.902 0 00-2.33-1.11c-.215.067-4.728 1.509-7.276 4.956a25.255 25.255 0 00-2.629-3.955c.803-1.833 1.93-5.306.874-8.68-1.5-4.79-6.727-7.217-6.949-7.318a1.9 1.9 0 00-2.423.765c-.125.21-3.028 5.205-1.527 9.995 1.326 4.234 5.563 6.621 6.682 7.188 11.621 13.598 1.936 34.71-15.914 34.71-17.897 0-27.627-21.22-15.803-34.839 1.365-.713 5.24-3.041 6.52-7.04C24.745 6.17 21.873 1.158 21.75.947a1.9 1.9 0 00-2.419-.781c-.222.1-5.464 2.493-6.994 7.274-1.096 3.426.068 6.97.861 8.782a25.469 25.469 0 00-2.594 3.9c-2.569-3.433-7.116-4.699-7.332-4.757a1.903 1.903 0 00-2.26 1.129C.92 16.72-1.2 22.096 1 26.605c1.534 3.142 4.774 4.872 6.703 5.66.037 1.47.207 2.938.505 4.387-3.385-.68-6.6.128-6.779.174A1.913 1.913 0 00.043 39.08c.053.247 1.35 6.083 5.61 8.66 1.86 1.127 3.955 1.45 5.747 1.45a16.42 16.42 0 003.098-.304c.872.937 1.81 1.8 2.806 2.58a9.634 9.634 0 00-2.615 1.243c-4.133 2.827-4.936 8.553-4.968 8.795a1.912 1.912 0 001.43 2.11c.117.028 1.54.371 3.45.371 1.958 0 4.427-.36 6.52-1.792 2.523-1.726 3.805-4.533 4.428-6.513 2.212.637 4.545.973 6.95.973a25.05 25.05 0 006.86-.948c.633 1.978 1.948 4.848 4.543 6.578C45.945 63.646 48.329 64 50.256 64c2.002 0 3.51-.383 3.63-.414a1.912 1.912 0 001.406-2.125c-.035-.242-.904-5.959-5.07-8.736a9.617 9.617 0 00-2.604-1.204 24.394 24.394 0 002.923-2.687c.796.159 1.877.312 3.093.312 1.767 0 3.814-.324 5.663-1.427 4.276-2.551 5.603-8.381 5.658-8.628.22-1.002-.386-2-1.374-2.262zM18.976 59.033c-1.543 1.055-3.555 1.194-5.01 1.115.461-1.39 1.328-3.224 2.867-4.276 1.543-1.056 3.556-1.194 5.01-1.116-.461 1.39-1.328 3.225-2.867 4.277zM15.964 8.61c.572-1.787 2.076-3.139 3.272-3.975.488 1.38.926 3.359.354 5.145-.571 1.786-2.073 3.137-3.27 3.974-.486-1.382-.925-3.364-.356-5.144zM4.42 24.922c-.83-1.7-.67-3.742-.382-5.179 1.375.65 3.19 1.783 4.027 3.495.263.54.442 1.153.535 1.829a23.917 23.917 0 00-.657 3.1c-1.38-.732-2.827-1.82-3.523-3.245zm3.198 19.543c-1.603-.969-2.62-2.805-3.205-4.227 1.51-.106 3.574-.014 5.17.952l.015.01a25.786 25.786 0 002.166 4.163c-1.313.045-2.867-.124-4.146-.898zm43.416 15.686c-1.456.095-3.475-.02-5.026-1.054-1.555-1.037-2.442-2.857-2.919-4.24 1.457-.094 3.476.02 5.026 1.054 1.556 1.038 2.443 2.856 2.92 4.24zm5.9-36.917c.845-1.727 2.655-2.928 4.041-3.636.277 1.436.416 3.441-.398 5.105-.704 1.44-2.161 2.582-3.552 3.372a24.3 24.3 0 00-.634-2.97 6.07 6.07 0 01.543-1.871zm-11.57-13.45c-.56-1.79-.11-3.767.386-5.143 1.191.844 2.687 2.205 3.248 3.995.56 1.79.11 3.766-.386 5.143-1.191-.844-2.687-2.206-3.247-3.996zM57.352 44.43c-1.27.758-2.795.924-4.094.877a25.942 25.942 0 002.154-4.168c1.609-.957 3.663-1.037 5.166-.92-.594 1.42-1.624 3.256-3.226 4.21z" fill="#D31218"/></svg>