<svg width="65" height="75" fill="none" xmlns="http://www.w3.org/2000/svg"><path d="M25.134 30.1v-3.6c0-5.6 2.6-9.2 8.8-9.2 5.2 0 10.1 1.3 13.4 3.5 1.1.7 2.1.6 2.8-.6l6.7-10.8c.6-1 .5-2-.5-2.7-5.6-3.9-14-6.6-22.9-6.6-16.1 0-27.2 10.7-27.2 26.7v23c0 14.5 10.4 24.6 26.8 24.6 16.5 0 26.6-10 26.6-24.9 0-13.3-9.3-21.8-23.8-21.8-4.4 0-8.1 1-10.7 2.4zm0 19.7v-.7c0-4.4 2.8-7.1 7.6-7.1 5 0 7.9 2.7 7.9 7.1 0 5.1-2.9 8-7.9 8-4.8 0-7.6-2.8-7.6-7.3z" fill="#E9ECF3"/><path d="M64.882 20.168a3.2 3.2 0 00-1.493-1.94 3.2 3.2 0 00-4.372 1.172l-.534.928a1.066 1.066 0 00-1.45.384l-2.709 4.619-.928-.534a1.068 1.068 0 00-1.46.395c-.29.51-.114 1.158.394 1.45l.928.534-9.065 15.712-2.24 5.984-1.067 1.995a3.2 3.2 0 00.171 3.456l-2.4 2.944-.671-1.685a2.132 2.132 0 00-3.808-.3l-.384.651-.362-4.266a2.134 2.134 0 00-4.149-.501l-2.623 7.872a1.067 1.067 0 00.671 1.344.925.925 0 00.331.085c.458.001.867-.291 1.014-.725l2.612-7.872.373 4.33a2.133 2.133 0 003.957.918l.395-.651.661 1.675a2.133 2.133 0 003.647.543l2.485-3.146c.275.072.559.108.843.107a3.2 3.2 0 002.783-1.58l1.067-1.78 4.063-4.94 9.161-15.903.928.533a1.066 1.066 0 01.395 1.462L57.78 40.83a1.065 1.065 0 00.341 1.503 1.065 1.065 0 001.461-.394l4.266-7.392a3.199 3.199 0 00-1.173-4.374l-.928-.533 2.666-4.619a1.067 1.067 0 00-.384-1.45l.534-.928a3.2 3.2 0 00.32-2.475zm-4.02.299a1.06 1.06 0 01.65-.501 1.12 1.12 0 01.81.106c.248.142.428.376.502.65.068.275.03.564-.106.811l-.534.928-1.856-1.066.534-.928zM46.326 50.248l-2.112-1.227 1.514-4.053 3.36 1.941-2.762 3.34zm-3.2 3.083a1.066 1.066 0 01-.32-1.398l.534-.927 1.855 1.066-.533.918a1.066 1.066 0 01-1.536.34zm7.178-8.17l-3.69-2.134 8.531-14.784 3.69 2.133-8.531 14.784zm9.598-16.63l-3.69-2.134 2.133-3.69 3.69 2.133-2.133 3.69zM17.829 52.797l-3.775 3.766-2.261-2.261a1.066 1.066 0 10-1.504 1.514l2.261 2.262c.4.396.94.619 1.504.618a2.133 2.133 0 001.514-.618l3.765-3.776a1.067 1.067 0 00-1.504-1.505z" fill="#D31218"/><path d="M5.266 55.667a9.066 9.066 0 1018.13 0 1.067 1.067 0 10-2.133 0 6.933 6.933 0 11-13.864 0 6.933 6.933 0 016.932-6.934 6.871 6.871 0 014.16 1.387 1.066 1.066 0 101.28-1.706 9.065 9.065 0 00-14.505 7.253zm34.127-42.134a1.066 1.066 0 100-2.133H11.665c-.59 0-1.067.478-1.067 1.067v4.266c0 .59.478 1.067 1.067 1.067h27.728a1.066 1.066 0 100-2.133H12.731v-2.134h26.662zm-24.529 6.4a1.067 1.067 0 000 2.134h21.33a1.066 1.066 0 100-2.134h-21.33zM42.593 27.4H19.13a1.067 1.067 0 000 2.133h23.463a1.066 1.066 0 100-2.133zm-10.665 7.467c0-.59-.477-1.067-1.066-1.067H9.532a1.067 1.067 0 000 2.133h21.33c.589 0 1.066-.477 1.066-1.066zM42.593 33.8h-7.466a1.067 1.067 0 000 2.133h7.466a1.066 1.066 0 100-2.133zm-22.396 7.467a1.066 1.066 0 100-2.134H9.532a1.067 1.067 0 000 2.134h10.665zm4.266 0h7.465a1.066 1.066 0 100-2.134h-7.465a1.067 1.067 0 000 2.134z" fill="#D31218"/><path d="M48.992 54.067c-.59 0-1.067.477-1.067 1.066V65.8c0 .59-.477 1.067-1.066 1.067H4.199A1.066 1.066 0 013.133 65.8V8.2c0-.59.477-1.067 1.066-1.067h42.66c.589 0 1.066.478 1.066 1.067v20.032a1.067 1.067 0 102.133 0V8.2a3.2 3.2 0 00-3.2-3.2H4.2A3.2 3.2 0 001 8.2v57.6A3.2 3.2 0 004.2 69h42.659a3.2 3.2 0 003.2-3.2V55.133c0-.589-.478-1.066-1.067-1.066z" fill="#D31218"/></svg>