<svg width="64" height="74" fill="none" xmlns="http://www.w3.org/2000/svg"><path d="M59.068 48.2c0-13.4-8.5-22.6-22.9-22.6-4.2 0-8.6 1.5-10 2.6l.5-10.5h25.4c1.3 0 2-.7 2-2V2.5c0-1.3-.7-2-2-2h-40.6c-1.2 0-2.1.8-2.1 2l-1.3 35.8c0 1.1.5 1.9 1.6 2.3l8.5 2.7c1 .3 1.7.1 2.7-.4 3.2-1.7 6.5-2.6 10.3-2.6 5.7 0 9.3 2.3 9.3 7 0 5.9-3 8.8-9.9 8.8-4.3 0-10.5-1.5-15.1-4.3-1.1-.6-2.1-.8-2.9.2l-6.8 10.2c-.8 1-.8 1.9 0 2.8 5.2 4.8 13.8 8.4 25.7 8.4 16.9 0 27.6-9.6 27.6-25.2z" fill="#E9ECF3"/><path d="M55.066 68V52.403l1.826-6.862a3.207 3.207 0 00-1.148-3.37 3.187 3.187 0 00-3.544-.218l-2.154 1.26a11.69 11.69 0 00-2.336-1.286l-8.106-3.25a11.622 11.622 0 002.434-5.086l2.753-1.38a3.177 3.177 0 001.765-2.863v-.815a3.208 3.208 0 00-.936-2.261 3.191 3.191 0 00-2.256-.939H42.3v-2.33a3.186 3.186 0 000-6.007v-1.263a9.623 9.623 0 00-2.808-6.785 9.573 9.573 0 00-6.767-2.815h-.196a3.167 3.167 0 00-5.991 0h-.196a9.573 9.573 0 00-6.768 2.815 9.623 9.623 0 00-2.807 6.785v1.264a3.187 3.187 0 000 6.007v2.33h-1.064a3.191 3.191 0 00-2.256.938 3.208 3.208 0 00-.936 2.261v.815a3.19 3.19 0 001.764 2.862l2.754 1.38a11.62 11.62 0 002.434 5.086l-8.106 3.252a11.652 11.652 0 00-5.354 4.31A11.698 11.698 0 004 52.821V68h51.066zm-38.3-8.533H28.47V61.6H16.767v-2.133zM34.413 61.6h-3.815v-2.133h5.943L34.412 61.6zm-17.645 2.133H28.47v2.134H16.767v-2.134zm13.83 0h2.277a3.128 3.128 0 00.082 2.134h-2.359v-2.134zm4.256.938a1.191 1.191 0 01.349-.846l4.218-4.229a1.064 1.064 0 011.504 0l.183.184a1.066 1.066 0 010 1.507l-4.218 4.23a1.193 1.193 0 01-2.036-.846zm10.335-7.658c.426.208.893.318 1.367.32h4.75a3.163 3.163 0 001.634-.462V61.6h-9.586a3.068 3.068 0 00-.19-2.557l2.025-2.03zm-5.64 8.854l2.128-2.134H52.94v2.134H39.55zm13.724-22.072c.161-.098.345-.15.533-.152a1.1 1.1 0 011.014.727c.069.2.075.417.018.621L52.972 52h-.033v.127l-.607 2.28a1.068 1.068 0 01-1.028.793h-4.748a1.064 1.064 0 01-1.064-1.067V48.96a1.073 1.073 0 01.527-.922l7.253-4.242zm-5.288.624l-3.037 1.776a3.206 3.206 0 00-1.583 2.764v5.174c.002.476.112.944.32 1.371l-2.026 2.032a3.186 3.186 0 00-2.55-.19v-.013h-8.51V54.72a18.235 18.235 0 005.865-5.987 18.29 18.29 0 002.574-7.986l7.882 3.16c.365.149.72.32 1.065.512zM35.676 45.6H23.391a16.224 16.224 0 01-1.19-4.48l.478.305a12.787 12.787 0 0013.707 0l.48-.305a16.223 16.223 0 01-1.19 4.48zm-1.099 2.133a16.215 16.215 0 01-5.044 5.141 16.218 16.218 0 01-5.044-5.14h10.088zm8.787-20.266a1.064 1.064 0 011.064 1.066v.815a1.063 1.063 0 01-.588.954l-1.54.772v-3.607h1.064zm-17.022-19.2V13.6h2.127V7.2a1.068 1.068 0 011.064-1.067A1.062 1.062 0 0130.597 7.2v6.4h2.128V8.267a7.446 7.446 0 015.263 2.19 7.485 7.485 0 012.184 5.276V16.8H18.895v-1.067a7.485 7.485 0 012.183-5.277 7.446 7.446 0 015.264-2.19zM17.83 18.933h23.405A1.062 1.062 0 0142.3 20a1.068 1.068 0 01-1.064 1.067H17.831A1.063 1.063 0 0116.767 20a1.068 1.068 0 011.064-1.067zm-3.192 10.415v-.815a1.07 1.07 0 011.064-1.066h1.064v3.607l-1.54-.772a1.058 1.058 0 01-.588-.954zm4.256-6.148h21.277v8.012a9.573 9.573 0 01-1.175 4.622 9.545 9.545 0 01-3.258 3.476l-.495.314a10.654 10.654 0 01-11.423 0l-.492-.314a9.544 9.544 0 01-3.259-3.476 9.574 9.574 0 01-1.175-4.623V23.2zm-6.748 20.708l7.883-3.161a18.29 18.29 0 002.574 7.986 18.235 18.235 0 005.865 5.987v2.613H16.767v-1.066a9.624 9.624 0 00-2.423-6.372 9.576 9.576 0 00-6.03-3.156 9.549 9.549 0 013.832-2.83zm-6.02 8.914A9.63 9.63 0 017.01 48.8h.18a7.446 7.446 0 015.264 2.19 7.485 7.485 0 012.184 5.277v9.6h-8.51V52.822z" fill="#D31218"/></svg>