<svg width="64" height="72" fill="none" xmlns="http://www.w3.org/2000/svg"><path d="M51.445 72c1.3 0 2-.7 2-2v-8.9h5.5c1.3 0 2-.7 2-2V46.7c0-1.3-.7-2-2-2h-5.5V33.1c0-1.3-.7-2-2-2h-12.4c-1.2 0-1.9.6-2.1 1.8l-2.2 11.8h-9.7l20.6-41.8c.7-1.4.1-2.4-1.4-2.4h-16.3c-1.1 0-1.8.5-2.3 1.5l-22.1 44c-.4.9-.6 1.6-.6 2.5v10.6c0 1.3.7 2 2 2h29.8V70c0 1.3.7 2 2 2h14.7z" fill="#E9ECF3"/><path d="M32.933 8.098H30.88v2.055h2.053V8.098zm0 53.56H30.88v2.055h2.053v-2.055zm19.341-44.694l-1.452-1.453-1.452 1.453 1.452 1.453 1.452-1.453zM11.529 54.842l1.452 1.453 1.452-1.453-1.452-1.453-1.452 1.453zM59.68 34.878h-2.053v2.055h2.053v-2.055zm-53.507 0H4.12v2.055h2.053v-2.055zm8.266-17.908l-1.452-1.454-1.452 1.453 1.452 1.453 1.452-1.453z" fill="#D31218"/><path d="M63.99 60.095a7.481 7.481 0 00-2.785-5.422l-6.274-5.182.214-.303a26.876 26.876 0 002.381-5.535l6.287-.63V28.8l-6.287-.63a27.74 27.74 0 00-2.028-4.905l4.006-4.892L49.45 8.312l-4.888 4.01a25.93 25.93 0 00-4.901-2.03L39.031 4H24.794l-.63 6.292a27.698 27.698 0 00-4.9 2.03l-4.901-4.023L4.309 18.361l4.019 4.892a26.992 26.992 0 00-2.041 4.917L0 28.8v14.223l6.287.63a26.512 26.512 0 002.04 4.905L4.322 53.45l10.054 10.061 4.889-4.009a26.834 26.834 0 004.9 2.042l.63 6.292h14.212l.63-6.291a26.406 26.406 0 005.606-2.434l.278-.189 5.178 6.266a7.441 7.441 0 005.417 2.8 7.473 7.473 0 005.707-2.181 7.556 7.556 0 002.167-5.712zM44.145 57.37a24.81 24.81 0 01-5.732 2.383l-.68.19-.58 5.837H26.672l-.593-5.838-.68-.189a24.276 24.276 0 01-5.732-2.383l-.618-.353-4.535 3.72-7.42-7.427 3.716-4.539-.353-.618a24.85 24.85 0 01-2.381-5.736l-.19-.681-5.832-.58v-10.49l5.833-.58.189-.681a24.312 24.312 0 012.381-5.737l.353-.618-3.717-4.539 7.42-7.426 4.536 3.72.618-.354a24.276 24.276 0 015.732-2.383l.68-.189.58-5.837h10.482l.58 5.837.68.19a24.23 24.23 0 015.733 2.382l.617.353 4.535-3.72 7.421 7.427-3.716 4.54.352.617a24.532 24.532 0 012.381 5.737l.19.68 5.833.58v10.49l-5.834.58-.188.682a24.754 24.754 0 01-2.331 5.673l-.05.076-4.045-3.354a19.636 19.636 0 002.167-8.914c0-10.793-8.769-19.568-19.553-19.568-10.785 0-19.554 8.775-19.554 19.568 0 10.793 8.77 19.568 19.554 19.568 3.112 0 6.186-.756 8.957-2.194l3.352 4.048-.076.05zm-.58-22.153c-.012-.075-.012-.138-.025-.214-.05-.441-.125-.87-.226-1.311-.013-.076-.038-.139-.05-.215-.114-.428-.24-.857-.404-1.273l-.075-.19a12.189 12.189 0 00-.58-1.235c-.025-.05-.05-.1-.088-.139a11.904 11.904 0 00-.769-1.185c-.025-.025-.037-.05-.063-.075-.302-.391-.63-.77-.982-1.135A11.323 11.323 0 0029.38 25.32l-1.726.466 7.056 7.06-1.827 4.187-3.981 1.664-7.068-7.073-.454 1.727c-1.033 3.909.088 8.095 2.923 10.932.265.264.542.504.832.756 2.204 1.816 5.001 2.686 7.798 2.535a12.775 12.775 0 001.676-.24c.365-.076.743-.164 1.109-.278l3.804 4.603a17.484 17.484 0 01-7.61 1.752c-9.65 0-17.499-7.855-17.499-17.513 0-9.658 7.85-17.513 17.5-17.513s17.5 7.855 17.5 17.513c0 2.61-.593 5.207-1.726 7.565l-4.6-3.77c0-.012 0-.025.013-.025.14-.454.252-.92.34-1.387a.738.738 0 00.026-.164c.075-.454.113-.908.139-1.361 0-.063.012-.14.012-.202.013-.441 0-.895-.05-1.337zM60.36 64.343a5.422 5.422 0 01-8.076-.467L36.373 44.611l-.693.265c-3.137 1.223-6.678.669-9.223-1.437a11.361 11.361 0 01-.692-.63 9.113 9.113 0 01-1.563-2.119 9.316 9.316 0 01-1.121-4.93l5.355 5.359 6.01-2.51 2.733-6.215-5.367-5.371a9.304 9.304 0 017.055 2.685c2.596 2.598 3.402 6.494 2.067 9.936l-.265.693 19.264 15.937a5.453 5.453 0 012.028 3.934 5.547 5.547 0 01-1.6 4.136z" fill="#D31218"/><path d="M56.543 57.346a3.192 3.192 0 00-3.187 3.19 3.184 3.184 0 003.187 3.19 3.192 3.192 0 003.188-3.19 3.184 3.184 0 00-3.188-3.19zm0 4.312a1.124 1.124 0 01-1.12-1.122c0-.618.503-1.122 1.12-1.122.618 0 1.122.504 1.122 1.122 0 .618-.504 1.122-1.122 1.122z" fill="#D31218"/></svg>