<svg width="64" height="74" fill="none" xmlns="http://www.w3.org/2000/svg"><path d="M57.754 48.8c0-10.9-7.8-19.9-18.7-19.4v-.2l14.6-13.6c.7-.7 1.1-1.5 1.1-2.5V2.5c0-1.3-.7-2-2-2h-42.5c-1.3 0-2 .7-2 2v13c0 1.3.7 2 2 2h21.2c-1.9 1.6-5.1 4.8-7.9 7.6l-6 5.6c-.8.8-1 1.8-.6 2.8l2.9 6.7c.5 1.1 1.3 1.6 2.5 1.2 2.4-.7 4.9-1.1 6.9-1.1 6.4 0 9.4 2.4 9.4 7.4 0 5.7-2.9 8.3-9 8.3-6.9 0-10.8-1.8-14.8-4.2-1-.6-2.3-.9-2.8 0l-6.9 10.7c-.7 1.1-.9 2 0 2.8 5.4 4.5 12.8 8.1 24.5 8.1 18.1 0 28.1-8.4 28.1-24.6z" fill="#E9ECF3"/><path d="M24.5 6.5c.329 0 .651-.134.884-.366a1.26 1.26 0 00.366-.884 1.26 1.26 0 00-.366-.884A1.26 1.26 0 0024.5 4a1.26 1.26 0 00-.884.366 1.26 1.26 0 00-.366.884c0 .329.134.651.366.884.233.232.555.366.884.366z" fill="#D31218"/><path d="M58.75 29.5H49V5.25C49 4.56 48.44 4 47.75 4H29.5a1.25 1.25 0 100 2.5h17v23h-8.75a5.256 5.256 0 00-5.25 5.25v3H22.312a1.25 1.25 0 100 2.5H32.5v9.5H22.312a1.25 1.25 0 100 2.5H32.5v7.25H11.25c-.69 0-1.25.56-1.25 1.25v1a3.754 3.754 0 01-3.75 3.75 3.754 3.754 0 01-3.75-3.75V6.5h17a1.25 1.25 0 100-2.5H1.25C.56 4 0 4.56 0 5.25v56.5A6.257 6.257 0 006.25 68h52.5A5.256 5.256 0 0064 62.75v-28a5.256 5.256 0 00-5.25-5.25zM12.494 62H32.5v.75c0 1.008.286 1.95.78 2.75H11.247a6.214 6.214 0 001.247-3.5zm49.006.75a2.753 2.753 0 01-2.75 2.75h-21A2.753 2.753 0 0135 62.75v-28A2.753 2.753 0 0137.75 32h21a2.753 2.753 0 012.75 2.75v28z" fill="#D31218"/><path d="M57.25 35H39.245c-.69 0-1.25.56-1.25 1.25v7c0 .69.56 1.25 1.25 1.25H57.25c.69 0 1.25-.56 1.25-1.25v-7c0-.69-.56-1.25-1.25-1.25zM56 42H40.495v-4.5H56V42zm-14.375 4.5h-2.38a1.25 1.25 0 000 2.5h2.38a1.25 1.25 0 100-2.5zm7.813 0h-2.38a1.25 1.25 0 000 2.5h2.38a1.25 1.25 0 100-2.5zm7.812 0h-2.38a1.25 1.25 0 000 2.5h2.38a1.25 1.25 0 100-2.5zm-15.625 4.584h-2.38a1.25 1.25 0 000 2.5h2.38a1.25 1.25 0 100-2.5zm7.813 0h-2.38a1.25 1.25 0 000 2.5h2.38a1.25 1.25 0 100-2.5zm7.812 0h-2.38a1.25 1.25 0 000 2.5h2.38a1.25 1.25 0 100-2.5zm-15.625 4.582h-2.38a1.25 1.25 0 000 2.5h2.38a1.25 1.25 0 100-2.5zm7.813 0h-2.38a1.25 1.25 0 000 2.5h2.38a1.25 1.25 0 100-2.5zm7.812 0h-2.38a1.25 1.25 0 000 2.5h2.38a1.25 1.25 0 100-2.5zM41.625 60.25h-2.38a1.25 1.25 0 000 2.5h2.38a1.25 1.25 0 100-2.5zm7.813 0h-2.38a1.25 1.25 0 000 2.5h2.38a1.25 1.25 0 100-2.5zm7.812 0h-2.38a1.25 1.25 0 000 2.5h2.38a1.25 1.25 0 100-2.5zM15.25 12c0-.69-.56-1.25-1.25-1.25H8c-.69 0-1.25.56-1.25 1.25v6c0 .69.56 1.25 1.25 1.25h6c.69 0 1.25-.56 1.25-1.25v-6zm-2.5 4.75h-3.5v-3.5h3.5v3.5zm2.5 7.25c0-.69-.56-1.25-1.25-1.25H8c-.69 0-1.25.56-1.25 1.25v6c0 .69.56 1.25 1.25 1.25h6c.69 0 1.25-.56 1.25-1.25v-6zm-2.5 4.75h-3.5v-3.5h3.5v3.5zm2.5 7.25c0-.69-.56-1.25-1.25-1.25H8c-.69 0-1.25.56-1.25 1.25v6c0 .69.56 1.25 1.25 1.25h6c.69 0 1.25-.56 1.25-1.25v-6zm-2.5 4.75h-3.5v-3.5h3.5v3.5zm1.25 6H8c-.69 0-1.25.56-1.25 1.25v6c0 .69.56 1.25 1.25 1.25h6c.69 0 1.25-.56 1.25-1.25v-6c0-.69-.56-1.25-1.25-1.25zm-1.25 6h-3.5v-3.5h3.5v3.5zm9.563-36.5h15.312a1.25 1.25 0 100-2.5H22.312a1.25 1.25 0 100 2.5zm0 12h15.312a1.25 1.25 0 100-2.5H22.312a1.25 1.25 0 100 2.5z" fill="#D31218"/></svg>