<svg width="64" height="72" fill="none" xmlns="http://www.w3.org/2000/svg"><path d="M44.86 72c1.3 0 2-.7 2-2V2.5c0-1.3-.7-2-2-2h-13c-.9 0-1.7.2-2.5.8l-17.7 13.1c-1 .8-1.3 1.7-.6 2.7l6.9 10.7c.7 1.2 1.8 1.3 2.8.5l7.3-5.5V70c0 1.3.7 2 2 2h14.8z" fill="#E9ECF3"/><path d="M16.13 4a1.25 1.25 0 000 2.5c7.061 0 12.806 5.894 12.806 13.14a1.25 1.25 0 002.5 0C31.437 11.016 24.57 4 16.13 4z" fill="#D31218"/><path d="M16.125 9.93a1.25 1.25 0 000 2.501c3.867 0 7.013 3.234 7.013 7.208a1.25 1.25 0 002.5 0c0-5.353-4.267-9.708-9.513-9.708z" fill="#D31218"/><path d="M16.15 15.394a1.25 1.25 0 100 2.5c.903 0 1.638.766 1.638 1.707a1.25 1.25 0 002.5 0c0-2.32-1.857-4.207-4.139-4.207zm41.162-1.486H54.54a1.25 1.25 0 000 2.5h2.772a4.193 4.193 0 014.188 4.188v16.97a4.18 4.18 0 01-1.593 3.283V37.58a5.3 5.3 0 00-4.327-5.209l-.808-.15a5.65 5.65 0 00.278-1.753v-2.873a5.671 5.671 0 00-5.665-5.665 5.671 5.671 0 00-5.664 5.665v2.873c0 .612.098 1.2.279 1.753l-.809.15a5.3 5.3 0 00-4.327 5.21v3.623a4.19 4.19 0 01-2.118-3.638v-16.97a4.193 4.193 0 014.188-4.188h2.98a1.25 1.25 0 000-2.5h-2.98c-3.687 0-6.688 3-6.688 6.688v16.97c0 3.688 3 6.688 6.688 6.688h6.291v3.595a1.25 1.25 0 002.132.887l4.51-4.481h3.445c3.688 0 6.688-3 6.688-6.689v-16.97c0-3.688-3-6.688-6.688-6.688zM46.22 27.595a3.168 3.168 0 013.164-3.165 3.168 3.168 0 013.165 3.165v2.873a3.168 3.168 0 01-3.165 3.164 3.168 3.168 0 01-3.164-3.164v-2.873zm11.185 14.157l-.095.002h-3.96c-.33 0-.647.13-.881.364l-2.744 2.726v-1.84c0-.69-.56-1.25-1.25-1.25h-7.111V37.58a2.8 2.8 0 012.285-2.75l1.762-.33a5.645 5.645 0 003.973 1.633c1.547 0 2.95-.624 3.974-1.633l1.762.33a2.8 2.8 0 012.286 2.75v4.172z" fill="#D31218"/><path d="M49.507 14.275a1.254 1.254 0 00-.884-.366 1.254 1.254 0 00-1.25 1.25c0 .329.133.651.366.884.233.232.555.366.884.366.329 0 .651-.134.884-.366.232-.234.366-.555.366-.884 0-.33-.134-.652-.366-.884zm-26.272 31.78a1.257 1.257 0 00-.884-.367c-.33 0-.652.134-.884.367a1.26 1.26 0 00-.366.883 1.257 1.257 0 001.25 1.252 1.256 1.256 0 001.25-1.252c0-.328-.133-.65-.366-.883z" fill="#D31218"/><path d="M50.598 57.359l-9.577-9.578a3.753 3.753 0 00-4.77-.444l-6.112 4.18a1.25 1.25 0 01-1.59-.148l-2.021-2.022a1.25 1.25 0 00-1.768 1.768l2.021 2.022a3.752 3.752 0 004.77.444l6.112-4.18a1.25 1.25 0 011.59.148l9.577 9.578a1.25 1.25 0 010 1.768c-6.141 6.142-16.135 6.142-22.276 0L7.105 41.447a15.648 15.648 0 01-4.613-11.138c0-4.208 1.638-8.163 4.614-11.139.236-.236.55-.366.883-.366.334 0 .648.13.884.367l9.578 9.577c.425.425.487 1.094.148 1.59l-4.18 6.112a3.752 3.752 0 00.444 4.77l3.039 3.038a1.25 1.25 0 001.768-1.768l-3.038-3.039a1.25 1.25 0 01-.148-1.59l4.18-6.112a3.753 3.753 0 00-.445-4.769l-9.577-9.577a3.755 3.755 0 00-5.305 0c-7.116 7.116-7.116 18.696 0 25.812l19.449 19.448A18.195 18.195 0 0037.692 68a18.2 18.2 0 0012.906-5.337 3.755 3.755 0 000-5.304z" fill="#D31218"/><path d="M16.84 34.74l-7.578-7.578a1.25 1.25 0 00-1.768 1.768l7.579 7.578a1.246 1.246 0 001.767 0 1.25 1.25 0 000-1.768zm29.005 29.004l-7.973-7.974a1.25 1.25 0 00-1.769 1.768l7.974 7.974a1.246 1.246 0 001.768 0 1.25 1.25 0 000-1.768z" fill="#D31218"/></svg>