<svg width="48" height="64" fill="none" xmlns="http://www.w3.org/2000/svg"><path d="M24 64c-.299 0-.6-.066-.875-.203C10.473 57.637 0 50.988 0 32V10c0-.843.525-1.593 1.316-1.88l22-8a2.01 2.01 0 011.368 0l22 8A1.997 1.997 0 0148 10v22c0 18.988-10.473 25.636-23.125 31.797A1.966 1.966 0 0124 64zM4 11.4V32c0 14.92 6.734 21.187 20 27.77C37.266 53.187 44 46.92 44 32V11.4L24 4.128 4 11.4z" fill="#D31218"/><path d="M22.586 40l-9.414-9.415L16 27.757l6.586 6.586 12.586-12.586L38 24.585 22.586 40z" fill="#D31218"/></svg>